<mxfile host="app.diagrams.net" modified="2023-11-24T14:28:23.444Z" agent="Mozilla/5.0 (Macintosh; Intel Mac OS X 10_15_7) AppleWebKit/605.1.15 (KHTML, like Gecko) Version/16.6 Safari/605.1.15" version="22.1.3" etag="Nt2Oh3x9We0IagAN4Jo6" type="github">
  <diagram name="Page-1" id="396z4GyyzeXZhvJKvuKi">
    <mxGraphModel>
      <root>
        <mxCell id="0" />
        <mxCell id="1" parent="0" />
      </root>
    </mxGraphModel>
  </diagram>
</mxfile>
